<svg width="232pt" height="46pt" viewBox="0 0 232 46" xmlns="http://www.w3.org/2000/svg"><g id="fontsvg1739009984149" stroke-linecap="round" fill-rule="evenodd" fill="#ffffff"><path d="M 215.283 27.582 Q 214.733 25.032 214.183 22.257 A 743.739 743.739 0 0 1 213.196 17.186 A 683.192 683.192 0 0 1 213.133 16.857 Q 212.633 14.232 212.233 11.982 Q 211.876 9.969 211.638 8.597 A 397.175 397.175 0 0 1 211.583 8.282 A 12.188 12.188 0 0 0 211.363 7.188 Q 211.081 6.078 210.633 5.407 Q 210.121 4.638 209.047 4.071 A 7.637 7.637 0 0 0 208.433 3.782 Q 206.533 2.882 204.783 2.332 Q 203.033 1.782 201.183 1.232 Q 200.032 0.935 199.239 1.066 A 2.27 2.27 0 0 0 198.733 1.207 Q 198.061 1.487 197.695 2.396 A 4.71 4.71 0 0 0 197.483 3.082 A 128.873 128.873 0 0 0 196.997 5.501 Q 196.682 7.148 196.358 9.032 Q 195.783 12.382 195.233 15.982 Q 194.683 19.582 194.208 23.207 Q 193.733 26.832 193.358 30.007 A 250.627 250.627 0 0 0 193.04 32.835 Q 192.898 34.164 192.789 35.347 A 145.595 145.595 0 0 0 192.758 35.682 A 492.104 492.104 0 0 0 192.654 36.86 Q 192.554 38.001 192.487 38.836 A 122.636 122.636 0 0 0 192.433 39.532 A 7.212 7.212 0 0 0 192.415 39.864 Q 192.391 40.669 192.571 41.225 A 2.198 2.198 0 0 0 192.708 41.557 A 2.214 2.214 0 0 0 193.149 42.133 Q 193.377 42.352 193.687 42.551 A 5.298 5.298 0 0 0 194.183 42.832 Q 195.333 43.532 196.558 43.857 Q 197.783 44.182 198.983 44.482 A 8.958 8.958 0 0 0 199.404 44.585 Q 200.36 44.794 200.733 44.607 A 0.895 0.895 0 0 0 201.047 44.336 Q 201.238 44.081 201.356 43.641 A 3.706 3.706 0 0 0 201.383 43.532 A 91.607 91.607 0 0 1 201.596 42.094 Q 201.793 40.823 202.058 39.307 Q 202.483 36.882 203.008 34.057 Q 203.533 31.232 204.108 28.132 Q 204.683 25.032 205.233 21.932 Q 205.883 24.532 206.633 27.107 Q 207.383 29.682 208.133 32.057 A 148.311 148.311 0 0 0 209.061 34.899 A 120.84 120.84 0 0 0 209.608 36.482 Q 210.231 38.244 210.836 39.636 A 33.472 33.472 0 0 0 211.033 40.082 A 5.276 5.276 0 0 0 213.997 43.028 A 6.521 6.521 0 0 0 214.133 43.082 Q 216.533 43.932 218.833 44.382 A 6.908 6.908 0 0 0 219.3 44.47 Q 221.56 44.811 221.833 43.082 A 465.166 465.166 0 0 1 222.479 40.299 Q 222.767 39.073 223.087 37.738 A 807.128 807.128 0 0 1 223.758 34.957 Q 224.883 30.332 226.108 25.482 Q 227.333 20.632 228.583 15.932 Q 229.833 11.232 230.983 7.532 A 7.136 7.136 0 0 0 231.164 6.827 Q 231.334 5.971 231.208 5.307 A 1.743 1.743 0 0 0 230.908 4.631 Q 230.565 4.143 229.861 3.663 A 7.635 7.635 0 0 0 229.583 3.482 Q 228.933 3.061 228.399 2.757 A 15.214 15.214 0 0 0 228.083 2.582 A 18.193 18.193 0 0 0 227.376 2.22 A 14.23 14.23 0 0 0 226.858 1.982 Q 226.283 1.732 225.683 1.582 A 75.445 75.445 0 0 1 225.067 1.425 Q 224.742 1.341 224.382 1.245 A 123.321 123.321 0 0 1 224.333 1.232 Q 222.786 0.845 221.963 1.16 A 1.656 1.656 0 0 0 221.908 1.182 A 1.577 1.577 0 0 0 221.298 1.661 Q 220.942 2.103 220.714 2.876 A 6.22 6.22 0 0 0 220.683 2.982 A 294.238 294.238 0 0 0 219.227 8.582 A 375.176 375.176 0 0 0 217.758 14.682 Q 216.283 21.032 215.283 27.582 Z M 26.833 33.432 Q 22.083 32.082 19.133 35.082 Q 15.033 39.282 13.033 38.632 A 2.056 2.056 0 0 1 12.01 37.947 Q 11.771 37.661 11.581 37.269 A 4.692 4.692 0 0 1 11.433 36.932 A 8.445 8.445 0 0 1 11.038 35.588 Q 10.896 34.911 10.826 34.132 A 15.948 15.948 0 0 1 10.783 33.507 Q 10.717 32.16 10.839 30.613 A 31.029 31.029 0 0 1 11.008 29.007 Q 11.333 26.532 11.983 24.032 A 37.306 37.306 0 0 1 12.815 21.532 A 50.433 50.433 0 0 1 13.908 18.832 Q 15.133 16.032 16.533 13.707 A 30.593 30.593 0 0 1 17.576 12.086 Q 18.44 10.838 19.283 9.932 A 6.614 6.614 0 0 1 19.811 9.421 Q 20.834 8.542 21.633 8.782 Q 22.633 9.182 22.833 10.482 A 13.607 13.607 0 0 1 22.967 11.785 Q 23.01 12.542 22.983 13.382 Q 22.983 14.282 23.133 15.332 Q 23.333 16.582 23.783 17.532 Q 24.233 18.482 24.983 19.207 Q 25.733 19.932 26.883 20.457 Q 28.033 20.982 29.633 21.282 Q 30.483 21.432 30.983 21.382 A 2.393 2.393 0 0 0 31.287 21.333 Q 31.439 21.298 31.563 21.243 A 1.058 1.058 0 0 0 31.758 21.132 A 1.238 1.238 0 0 0 32.112 20.728 A 1.55 1.55 0 0 0 32.183 20.582 A 16.455 16.455 0 0 0 32.371 20.125 A 19.535 19.535 0 0 0 32.483 19.832 Q 32.783 18.932 33.033 17.807 A 24.32 24.32 0 0 0 33.394 15.762 A 26.985 26.985 0 0 0 33.433 15.457 Q 33.583 14.232 33.658 12.982 Q 33.733 11.732 33.683 10.582 A 16.882 16.882 0 0 0 33.582 9.381 A 14.091 14.091 0 0 0 33.483 8.707 Q 33.333 7.832 32.958 7.032 A 7.349 7.349 0 0 0 32.325 5.944 A 8.847 8.847 0 0 0 31.958 5.457 A 9.888 9.888 0 0 0 31.252 4.676 Q 30.883 4.307 30.442 3.932 A 16.044 16.044 0 0 0 30.383 3.882 Q 29.383 3.232 28.133 2.607 Q 26.883 1.982 25.483 1.457 Q 24.083 0.932 22.583 0.557 A 22.133 22.133 0 0 0 20.412 0.124 A 19.259 19.259 0 0 0 19.683 0.032 A 10.489 10.489 0 0 0 18.858 0 Q 17.85 0 16.777 0.186 A 14.839 14.839 0 0 0 15.633 0.432 Q 13.483 0.982 11.383 2.782 Q 8.783 5.032 6.758 8.007 Q 4.733 10.982 3.283 14.332 Q 1.833 17.682 1.008 21.207 A 38.661 38.661 0 0 0 0.151 26.382 A 34.21 34.21 0 0 0 0.033 28.057 A 32.353 32.353 0 0 0 0 29.515 Q 0 31.403 0.23 33.155 A 24.706 24.706 0 0 0 0.408 34.307 A 16.87 16.87 0 0 0 1.127 37.038 A 13.05 13.05 0 0 0 2.233 39.382 A 7.595 7.595 0 0 0 4.045 41.598 A 8.858 8.858 0 0 0 4.333 41.832 A 12.838 12.838 0 0 0 5.81 42.831 A 10.092 10.092 0 0 0 7.033 43.432 Q 8.485 43.916 10.311 44.47 A 177.695 177.695 0 0 0 10.433 44.507 A 16.821 16.821 0 0 0 12.713 45.02 A 21.788 21.788 0 0 0 14.683 45.232 Q 15.783 45.332 16.958 45.232 A 16.06 16.06 0 0 0 18.938 44.942 A 14.596 14.596 0 0 0 19.208 44.882 Q 20.283 44.632 21.258 44.232 A 12.704 12.704 0 0 0 22.059 43.873 Q 22.465 43.672 22.808 43.461 A 7.501 7.501 0 0 0 22.933 43.382 Q 24.333 42.382 25.733 40.882 Q 27.133 39.382 28.033 37.582 A 8.837 8.837 0 0 0 28.437 36.753 Q 28.814 35.852 28.814 35.156 A 2.436 2.436 0 0 0 28.808 34.982 A 1.211 1.211 0 0 0 28.38 34.156 Q 27.887 33.709 26.833 33.432 Z M 132.983 4.032 L 128.233 37.282 Q 128.177 38.04 128.302 38.671 A 3.58 3.58 0 0 0 128.608 39.582 Q 129.083 40.532 129.933 41.232 Q 130.655 41.851 131.247 42.316 A 23.282 23.282 0 0 0 131.758 42.707 Q 132.533 43.282 133.383 43.832 A 5.396 5.396 0 0 0 134.371 44.347 A 6.951 6.951 0 0 0 135.158 44.607 A 2.72 2.72 0 0 0 135.553 44.68 Q 136.538 44.793 138.183 44.382 Q 141.183 43.832 144.483 43.182 Q 147.783 42.532 150.983 41.932 Q 152.148 41.716 152.494 41.408 A 0.532 0.532 0 0 0 152.583 41.307 A 0.668 0.668 0 0 0 152.67 41.109 Q 152.775 40.721 152.595 39.977 A 6.227 6.227 0 0 0 152.583 39.932 A 30.658 30.658 0 0 1 151.861 38.164 A 26.984 26.984 0 0 1 151.858 38.157 A 9.639 9.639 0 0 0 151.466 37.255 Q 151.235 36.784 150.933 36.282 Q 150.442 35.479 149.772 35.154 A 2.165 2.165 0 0 0 149.608 35.082 Q 148.912 34.813 147.711 34.866 A 10.349 10.349 0 0 0 147.433 34.882 Q 144.933 35.032 142.808 35.282 A 83.664 83.664 0 0 0 139.78 35.697 A 98.278 98.278 0 0 0 138.333 35.932 Q 138.733 34.532 139.083 33.107 Q 139.433 31.682 139.833 30.082 A 133.45 133.45 0 0 1 145.081 29.109 A 147.354 147.354 0 0 1 145.858 28.982 Q 148.983 28.482 151.983 27.932 A 9.921 9.921 0 0 0 152.544 27.796 Q 153.454 27.545 153.708 27.232 A 0.606 0.606 0 0 0 153.82 27.007 Q 153.932 26.599 153.677 25.812 A 6.319 6.319 0 0 0 153.633 25.682 Q 153.383 24.682 153.058 23.707 A 9.361 9.361 0 0 0 152.513 22.417 A 11.363 11.363 0 0 0 152.133 21.732 A 3.774 3.774 0 0 0 151.731 21.133 Q 151.459 20.807 151.141 20.609 A 2.009 2.009 0 0 0 150.783 20.432 A 3.486 3.486 0 0 0 150.207 20.275 Q 149.533 20.148 148.583 20.182 A 92.631 92.631 0 0 0 146.537 20.264 A 76.905 76.905 0 0 0 145.383 20.332 Q 143.883 20.432 142.383 20.632 Q 143.183 17.982 143.833 15.557 A 81.998 81.998 0 0 1 145.14 11.164 A 75.273 75.273 0 0 1 145.233 10.882 Q 148.783 10.382 151.983 10.032 Q 155.183 9.682 158.183 9.332 A 8.668 8.668 0 0 0 158.768 9.233 Q 159.674 9.044 160.001 8.717 A 0.802 0.802 0 0 0 160.033 8.682 Q 160.404 8.266 160.26 7.12 A 6.889 6.889 0 0 0 160.233 6.932 Q 159.983 5.782 159.733 4.807 Q 159.483 3.832 158.833 2.632 A 3.188 3.188 0 0 0 157.88 1.212 Q 156.941 0.431 155.306 0.431 A 7.01 7.01 0 0 0 155.183 0.432 Q 152.183 0.532 149.158 0.907 Q 146.133 1.282 143.258 1.782 A 110.193 110.193 0 0 0 139.087 2.588 A 97.619 97.619 0 0 0 137.758 2.882 Q 135.133 3.482 132.983 4.032 Z M 56.083 34.482 A 315.659 315.659 0 0 0 56.233 36.451 A 244.147 244.147 0 0 0 56.383 38.257 Q 56.533 39.982 56.733 41.432 A 8.067 8.067 0 0 0 56.859 42.116 Q 57.06 42.978 57.408 43.382 A 2.008 2.008 0 0 0 57.821 43.737 Q 58.296 44.052 59.083 44.282 A 9.045 9.045 0 0 0 60.641 44.679 A 7.839 7.839 0 0 0 61.333 44.757 A 31.298 31.298 0 0 0 62.483 44.813 A 40.064 40.064 0 0 0 63.733 44.832 Q 64.954 44.832 65.359 44.523 A 0.643 0.643 0 0 0 65.408 44.482 A 0.974 0.974 0 0 0 65.637 44.142 Q 65.766 43.836 65.781 43.362 A 4.036 4.036 0 0 0 65.783 43.232 A 481.62 481.62 0 0 1 65.758 40.285 Q 65.75 38.771 65.75 37.177 A 657.476 657.476 0 0 1 65.758 33.907 Q 65.783 28.882 65.883 23.882 Q 65.983 18.882 66.183 14.282 Q 66.355 10.329 66.601 7.151 A 143.434 143.434 0 0 1 66.683 6.132 A 7.446 7.446 0 0 0 66.717 5.674 Q 66.759 4.666 66.485 3.96 A 2.728 2.728 0 0 0 66.408 3.782 Q 65.983 2.882 64.433 2.332 Q 63.283 2.032 62.158 1.682 A 29.633 29.633 0 0 0 60.713 1.274 A 36.656 36.656 0 0 0 59.708 1.032 A 31.597 31.597 0 0 0 58.315 0.751 A 40.978 40.978 0 0 0 56.783 0.507 A 33.562 33.562 0 0 0 55.185 0.324 Q 54.343 0.246 53.404 0.196 A 56.176 56.176 0 0 0 53.133 0.182 A 10.673 10.673 0 0 0 52.59 0.149 Q 50.641 0.083 49.583 0.832 Q 48.383 1.682 47.633 3.032 Q 45.567 6.723 43.282 11.454 A 216.614 216.614 0 0 0 43.208 11.607 Q 40.883 16.432 38.658 21.382 A 359.78 359.78 0 0 0 35.49 28.638 A 321.044 321.044 0 0 0 34.508 30.982 A 204.771 204.771 0 0 0 33.167 34.301 Q 32.133 36.926 31.383 39.082 Q 31.106 40.051 31.106 40.658 A 2.469 2.469 0 0 0 31.108 40.757 A 2.763 2.763 0 0 0 31.159 41.194 Q 31.207 41.434 31.3 41.63 A 1.504 1.504 0 0 0 31.383 41.782 A 2.008 2.008 0 0 0 31.883 42.321 A 2.465 2.465 0 0 0 32.083 42.457 Q 32.393 42.646 32.773 42.894 A 43.933 43.933 0 0 1 33.133 43.132 A 26.369 26.369 0 0 0 34.514 43.775 A 24.017 24.017 0 0 0 34.708 43.857 A 59.441 59.441 0 0 0 35.452 44.163 A 44.862 44.862 0 0 0 36.133 44.432 Q 37.283 44.832 37.858 44.682 A 1.108 1.108 0 0 0 38.328 44.417 Q 38.608 44.16 38.833 43.682 Q 39.533 42.082 40.283 40.407 A 66.975 66.975 0 0 1 41.096 38.663 A 87.363 87.363 0 0 1 42.033 36.782 A 47.4 47.4 0 0 1 44.898 36.128 Q 46.413 35.829 48.118 35.578 A 80.268 80.268 0 0 1 48.608 35.507 Q 52.333 34.982 56.083 34.482 Z M 180.633 34.482 A 315.659 315.659 0 0 0 180.783 36.451 A 244.147 244.147 0 0 0 180.933 38.257 Q 181.083 39.982 181.283 41.432 A 8.067 8.067 0 0 0 181.409 42.116 Q 181.61 42.978 181.958 43.382 A 2.008 2.008 0 0 0 182.371 43.737 Q 182.846 44.052 183.633 44.282 A 9.045 9.045 0 0 0 185.191 44.679 A 7.839 7.839 0 0 0 185.883 44.757 A 31.298 31.298 0 0 0 187.033 44.813 A 40.064 40.064 0 0 0 188.283 44.832 Q 189.504 44.832 189.909 44.523 A 0.643 0.643 0 0 0 189.958 44.482 A 0.974 0.974 0 0 0 190.187 44.142 Q 190.316 43.836 190.331 43.362 A 4.036 4.036 0 0 0 190.333 43.232 A 481.62 481.62 0 0 1 190.308 40.285 Q 190.3 38.771 190.3 37.177 A 657.476 657.476 0 0 1 190.308 33.907 Q 190.333 28.882 190.433 23.882 Q 190.533 18.882 190.733 14.282 Q 190.905 10.329 191.151 7.151 A 143.434 143.434 0 0 1 191.233 6.132 A 7.446 7.446 0 0 0 191.267 5.674 Q 191.309 4.666 191.035 3.96 A 2.728 2.728 0 0 0 190.958 3.782 Q 190.533 2.882 188.983 2.332 Q 187.833 2.032 186.708 1.682 A 29.633 29.633 0 0 0 185.263 1.274 A 36.656 36.656 0 0 0 184.258 1.032 A 31.597 31.597 0 0 0 182.865 0.751 A 40.978 40.978 0 0 0 181.333 0.507 A 33.562 33.562 0 0 0 179.735 0.324 Q 178.893 0.246 177.954 0.196 A 56.176 56.176 0 0 0 177.683 0.182 A 10.673 10.673 0 0 0 177.14 0.149 Q 175.191 0.083 174.133 0.832 Q 172.933 1.682 172.183 3.032 Q 170.117 6.723 167.832 11.454 A 216.614 216.614 0 0 0 167.758 11.607 Q 165.433 16.432 163.208 21.382 A 359.78 359.78 0 0 0 160.04 28.638 A 321.044 321.044 0 0 0 159.058 30.982 A 204.771 204.771 0 0 0 157.717 34.301 Q 156.683 36.926 155.933 39.082 Q 155.656 40.051 155.656 40.658 A 2.469 2.469 0 0 0 155.658 40.757 A 2.763 2.763 0 0 0 155.709 41.194 Q 155.757 41.434 155.85 41.63 A 1.504 1.504 0 0 0 155.933 41.782 A 2.008 2.008 0 0 0 156.433 42.321 A 2.465 2.465 0 0 0 156.633 42.457 Q 156.943 42.646 157.323 42.894 A 43.933 43.933 0 0 1 157.683 43.132 A 26.369 26.369 0 0 0 159.064 43.775 A 24.017 24.017 0 0 0 159.258 43.857 A 59.441 59.441 0 0 0 160.002 44.163 A 44.862 44.862 0 0 0 160.683 44.432 Q 161.833 44.832 162.408 44.682 A 1.108 1.108 0 0 0 162.878 44.417 Q 163.158 44.16 163.383 43.682 Q 164.083 42.082 164.833 40.407 A 66.975 66.975 0 0 1 165.646 38.663 A 87.363 87.363 0 0 1 166.583 36.782 A 47.4 47.4 0 0 1 169.448 36.128 Q 170.963 35.829 172.668 35.578 A 80.268 80.268 0 0 1 173.158 35.507 Q 176.883 34.982 180.633 34.482 Z M 103.233 8.832 A 9.186 9.186 0 0 0 103.81 8.778 Q 104.63 8.673 104.935 8.437 A 0.529 0.529 0 0 0 105.058 8.307 A 0.738 0.738 0 0 0 105.15 8.091 Q 105.269 7.635 105.033 6.732 A 14.595 14.595 0 0 0 104.375 4.838 A 17.2 17.2 0 0 0 104.033 4.082 Q 103.383 2.732 102.383 1.582 Q 101.883 0.932 101.208 0.657 Q 100.666 0.436 99.559 0.393 A 14.719 14.719 0 0 0 98.983 0.382 A 140.309 140.309 0 0 0 96.047 0.514 Q 94.507 0.599 92.8 0.721 A 232.643 232.643 0 0 0 92.308 0.757 Q 88.583 1.032 84.708 1.432 Q 80.833 1.832 77.108 2.332 A 120.261 120.261 0 0 0 73.682 2.84 Q 71.954 3.123 70.433 3.432 A 5.325 5.325 0 0 0 69.999 3.565 Q 69.578 3.715 69.343 3.901 A 0.986 0.986 0 0 0 69.183 4.057 A 0.445 0.445 0 0 0 69.098 4.246 Q 69.008 4.671 69.483 5.582 A 53.704 53.704 0 0 0 69.779 6.163 Q 70.252 7.082 70.908 8.282 A 13.608 13.608 0 0 0 71.797 9.703 A 9.963 9.963 0 0 0 72.833 10.932 Q 73.727 11.87 74.46 12.15 A 2.027 2.027 0 0 0 74.633 12.207 A 2.545 2.545 0 0 0 75.07 12.288 Q 75.678 12.348 76.485 12.177 A 7.732 7.732 0 0 0 76.683 12.132 A 11.51 11.51 0 0 1 77.422 11.955 Q 78.09 11.817 78.933 11.707 A 65.84 65.84 0 0 0 81.015 11.402 A 73.935 73.935 0 0 0 81.733 11.282 Q 80.983 14.682 80.233 18.657 Q 79.483 22.632 78.858 26.532 A 262.653 262.653 0 0 0 78.277 30.332 A 221.827 221.827 0 0 0 77.783 33.932 Q 77.333 37.432 77.183 39.832 A 4.309 4.309 0 0 0 77.114 40.265 Q 77.064 40.734 77.141 41.126 A 2.128 2.128 0 0 0 77.233 41.457 A 2.847 2.847 0 0 0 78.023 42.601 A 3.338 3.338 0 0 0 78.058 42.632 A 4.533 4.533 0 0 0 78.792 43.147 A 6.047 6.047 0 0 0 79.483 43.482 Q 80.333 43.832 81.383 44.132 Q 82.433 44.432 83.283 44.682 Q 83.951 44.878 84.495 44.936 A 4.321 4.321 0 0 0 84.783 44.957 Q 85.433 44.982 85.808 44.757 A 0.796 0.796 0 0 0 86.082 44.473 Q 86.227 44.229 86.283 43.832 A 264.041 264.041 0 0 1 87.04 40.045 A 328.607 328.607 0 0 1 87.908 35.982 A 545.018 545.018 0 0 1 89.818 27.633 A 593.33 593.33 0 0 1 89.883 27.357 Q 90.933 22.932 92.058 18.432 L 94.233 9.732 A 1158.604 1158.604 0 0 1 98.406 9.314 A 1050.933 1050.933 0 0 1 98.983 9.257 A 1034.013 1034.013 0 0 0 101.196 9.038 A 808.054 808.054 0 0 0 103.233 8.832 Z M 125.061 41.386 A 0.442 0.442 0 0 0 125.208 41.232 Q 125.383 40.882 125.033 39.832 A 11.264 11.264 0 0 0 124.715 38.74 A 13.778 13.778 0 0 0 124.458 38.057 A 9.972 9.972 0 0 0 123.7 36.571 A 11.332 11.332 0 0 0 123.483 36.232 A 4.389 4.389 0 0 0 123.096 35.704 Q 122.864 35.435 122.615 35.256 A 1.983 1.983 0 0 0 122.158 35.007 A 2.664 2.664 0 0 0 121.709 34.884 Q 121.048 34.76 120.033 34.832 Q 117.683 34.982 115.683 35.182 Q 113.683 35.382 111.383 35.782 A 577.544 577.544 0 0 1 112.654 30.424 A 663.1 663.1 0 0 1 113.108 28.557 Q 114.033 24.782 115.058 20.982 Q 116.083 17.182 117.108 13.582 Q 118.133 9.982 119.133 6.982 Q 119.583 5.682 119.258 4.982 A 2.199 2.199 0 0 0 118.989 4.557 Q 118.676 4.158 118.102 3.692 A 11.666 11.666 0 0 0 117.633 3.332 Q 116.283 2.432 114.483 1.707 Q 112.683 0.982 111.133 0.582 A 9.11 9.11 0 0 0 110.561 0.435 Q 109.433 0.185 108.808 0.407 A 1.375 1.375 0 0 0 108.276 0.768 Q 107.926 1.135 107.65 1.82 A 6.528 6.528 0 0 0 107.533 2.132 A 147.893 147.893 0 0 0 106.827 4.807 A 190.847 190.847 0 0 0 106.108 7.732 A 260.276 260.276 0 0 0 105.035 12.448 A 290.309 290.309 0 0 0 104.683 14.082 Q 103.983 17.382 103.383 20.707 A 360.254 360.254 0 0 0 102.54 25.568 A 322.523 322.523 0 0 0 102.283 27.132 Q 101.783 30.232 101.433 32.907 Q 101.083 35.582 100.933 37.532 A 4.946 4.946 0 0 0 100.881 37.999 Q 100.844 38.565 100.958 39.044 A 2.701 2.701 0 0 0 101.183 39.657 A 4.799 4.799 0 0 0 102.083 40.87 A 5.838 5.838 0 0 0 102.483 41.232 A 172.111 172.111 0 0 1 103.03 41.662 Q 103.808 42.276 104.333 42.707 A 16.068 16.068 0 0 0 105.367 43.486 A 18.989 18.989 0 0 0 105.883 43.832 Q 106.233 44.082 106.608 44.282 Q 106.983 44.482 107.533 44.607 A 3.477 3.477 0 0 0 107.98 44.677 Q 108.368 44.713 108.833 44.682 A 6.441 6.441 0 0 0 109.418 44.614 Q 109.698 44.569 110.015 44.499 A 14.638 14.638 0 0 0 110.683 44.332 A 516.07 516.07 0 0 1 113.765 43.726 A 600.082 600.082 0 0 1 117.008 43.107 A 2725.889 2725.889 0 0 0 123.459 41.887 A 5593.268 5593.268 0 0 0 123.483 41.882 Q 124.686 41.649 125.061 41.386 Z M 50.918 18.862 A 425.473 425.473 0 0 0 46.533 27.482 Q 48.783 27.132 51.058 26.882 Q 53.333 26.632 55.633 26.482 Q 55.533 22.382 55.483 18.307 A 220.744 220.744 0 0 1 55.467 15.599 A 214.731 214.731 0 0 1 55.533 10.232 A 458.923 458.923 0 0 0 53.452 14.076 A 603.734 603.734 0 0 0 51.208 18.307 A 389.392 389.392 0 0 0 50.918 18.862 Z M 175.468 18.862 A 425.473 425.473 0 0 0 171.083 27.482 Q 173.333 27.132 175.608 26.882 Q 177.883 26.632 180.183 26.482 Q 180.083 22.382 180.033 18.307 A 220.744 220.744 0 0 1 180.017 15.599 A 214.731 214.731 0 0 1 180.083 10.232 A 458.923 458.923 0 0 0 178.002 14.076 A 603.734 603.734 0 0 0 175.758 18.307 A 389.392 389.392 0 0 0 175.468 18.862 Z" vector-effect="non-scaling-stroke"/></g></svg>