<?xml version="1.0" encoding="utf-8"?>
<svg xmlns="http://www.w3.org/2000/svg" height="24px" viewBox="0 -960 960 960" width="24px" fill="#e3e3e3">
  <path d="M 200 -200 L 200 -360 L 160 -360 C 138 -360 119.167 -367.833 103.5 -383.5 C 87.833 -399.167 80 -418 80 -440 L 80 -520 C 80 -542 87.833 -560.833 103.5 -576.5 C 119.167 -592.167 138 -600 160 -600 L 320 -600 L 520 -720 L 520 -240 L 320 -360 L 280 -360 L 280 -200 L 200 -200 Z M 440 -382 L 440 -578 L 342 -520 L 160 -520 L 160 -440 L 342 -440 L 440 -382 Z M 560 -346 L 560 -614 C 578 -598 592.5 -578.5 603.5 -555.5 C 614.5 -532.5 620 -507.333 620 -480 C 620 -452.667 614.5 -427.5 603.5 -404.5 C 592.5 -381.5 578 -362 560 -346 Z M 300 -480 Z"/>
</svg>